
        <svg xmlns="http://www.w3.org/2000/svg" xmlns:xlink="http://www.w3.org/1999/xlink" version="1.1" width="3187.5" height="1127.1653985220728" viewBox="0 0 3187.5 1127.1653985220728">
			
			<g transform="scale(9.375) translate(10, 10)">
				<defs id="SvgjsDefs1457"/><g id="SvgjsG1458" featureKey="symbolFeature-0" transform="matrix(1.1211519316031628,0,0,1.1211519316031628,-6.05422053757846,-5.942105451339524)" fill="#000"><path xmlns="http://www.w3.org/2000/svg" d="M94,13.2l-7.7-7.4C86,5.5,85.5,5.3,85,5.3c-0.5,0-0.9,0.2-1.3,0.6L43.1,48.3c-0.7,0.7-0.7,1.9,0.1,2.6  l7.7,7.4c0.3,0.3,0.8,0.5,1.3,0.5c0.5,0,0.9-0.2,1.3-0.6l40.7-42.4C94.8,15.1,94.7,13.9,94,13.2z M52,54.4l-5.1-4.9L85.1,9.7  l5.1,4.9L52,54.4z"/><path xmlns="http://www.w3.org/2000/svg" d="M23.8,74.7c3.5,0.8,6.6,1.1,9.2,1.1c4.2,0,7.4-0.8,10-2.1c1.9-1,3.3-2.2,4.4-3.5c1.6-2,2.4-4.1,2.9-5.6  c0.4-1.6,0.4-2.7,0.4-2.8c0-0.5-0.2-1-0.6-1.3l-9-8.6c-0.3-0.3-0.8-0.5-1.3-0.5c-1.4,0-2.6,0.2-3.7,0.5c-0.9,0.3-1.8,0.7-2.5,1.2  c-1.3,0.9-2.1,2.1-2.7,3.3c-0.9,1.9-1.2,3.8-1.5,5.7c-0.2,0.9-0.3,1.8-0.6,2.6c-0.2,0.8-0.5,1.5-0.8,2.1c-0.3,0.5-0.7,1.1-1.2,1.6  c-0.8,0.9-1.7,1.7-2.5,2.3c-0.4,0.3-0.7,0.5-0.9,0.7c-0.1,0.1-0.2,0.1-0.3,0.2l-0.1,0l0,0l0,0l0,0c-0.6,0.4-0.9,1.1-0.8,1.8  C22.5,73.9,23.1,74.5,23.8,74.7z M29.6,70.7c0.7-0.7,1.3-1.5,1.8-2.4c0.9-1.6,1.3-3.3,1.6-5c0.2-1.2,0.4-2.4,0.7-3.5  c0.2-0.8,0.4-1.5,0.7-2.1c0.2-0.5,0.5-0.8,0.7-1.2c0.4-0.5,0.9-0.9,1.7-1.2c0.6-0.2,1.4-0.4,2.4-0.5l7.8,7.4  c-0.1,0.5-0.2,1.3-0.6,2.2c-0.3,0.8-0.7,1.6-1.3,2.5c-0.9,1.3-2.1,2.5-4,3.5c-1.9,1-4.5,1.6-8.1,1.6c-1.4,0-2.9-0.1-4.6-0.3  C28.8,71.5,29.2,71.1,29.6,70.7z"/><path xmlns="http://www.w3.org/2000/svg" d="M78.6,37.2L78.6,37.2c1.1,4,1.8,8.3,1.8,12.8c0,3.9-0.1,7.2-0.4,9.9c-0.2,2-0.5,3.7-0.8,5  c-0.2,1-0.5,1.8-0.8,2.5c-0.5,1-0.9,1.5-1.3,1.8c-0.2,0.2-0.4,0.3-0.7,0.3c-0.2,0.1-0.5,0.1-0.8,0.1c-0.2,0-0.5,0-0.8-0.1  c-0.4-0.1-0.6-0.2-0.9-0.4c-0.2-0.2-0.4-0.4-0.6-0.7c-0.4-0.6-0.7-1.4-1.1-2.3c-0.3-0.7-0.5-1.5-0.8-2.3c-0.5-1.2-1-2.4-2.1-3.4  c-0.5-0.5-1.2-1-1.9-1.3c-0.7-0.3-1.6-0.5-2.5-0.5c-0.5,0-1,0-1.6,0.1c-1,0.2-2,0.6-2.7,1.2c-0.6,0.5-1,1-1.3,1.6  c-0.5,0.9-0.8,1.9-0.9,2.9c-0.2,1-0.2,2.1-0.2,3.3c0,2.9,0.3,6.1,0.3,9.1c0,1.9-0.1,3.8-0.5,5.4c-0.3,1.2-0.7,2.4-1.2,3.4  c-0.4,0.7-0.9,1.4-1.6,2c-1,0.9-2.2,1.7-3.9,2.2c-1.7,0.6-3.9,0.9-6.6,0.9l-0.1,0c-4.9,0-9.5-1.1-13.8-3.2  c-6.4-3.1-11.8-8.3-15.7-14.8c-3.9-6.6-6.1-14.5-6.1-23c0-11.4,4-21.7,10.5-29.1c3.2-3.7,7.1-6.7,11.3-8.7c4.3-2.1,8.9-3.2,13.8-3.2  c8.3,0,15.9,3.2,22,8.7l2.4-2.7C62.5,9,54,5.3,44.7,5.3c-5.5,0-10.7,1.3-15.4,3.6c-7.1,3.4-13.1,9.1-17.3,16.2  C7.9,32.2,5.4,40.8,5.4,50c0,12.2,4.3,23.4,11.4,31.5c3.5,4.1,7.7,7.4,12.5,9.6c4.7,2.3,9.9,3.6,15.3,3.6l0.1,0  c3.6,0,6.5-0.5,8.8-1.5c1.8-0.7,3.2-1.7,4.4-2.9c1.7-1.8,2.8-4,3.4-6.2c0.6-2.3,0.7-4.6,0.7-6.9c0-3.3-0.3-6.5-0.3-9.1  c0-0.9,0-1.7,0.1-2.5c0.1-0.5,0.2-1,0.3-1.4c0.2-0.6,0.4-0.9,0.7-1.2c0.2-0.2,0.5-0.4,1.1-0.5c0.4-0.1,0.7-0.1,1-0.1  c0.6,0,0.9,0.1,1.2,0.2c0.3,0.1,0.5,0.3,0.7,0.5c0.4,0.4,0.8,1.1,1.1,2c0.3,0.6,0.5,1.4,0.8,2.1c0.4,1.1,0.9,2.4,1.7,3.5  c0.4,0.6,0.9,1.1,1.5,1.5c0.6,0.4,1.4,0.7,2.2,0.9c0.5,0.1,1,0.1,1.5,0.1c0.7,0,1.5-0.1,2.2-0.4c0.6-0.2,1.2-0.6,1.7-1  c0.9-0.8,1.6-1.8,2.2-3.1c0.8-1.9,1.4-4.3,1.8-7.4C83.8,58.4,84,54.6,84,50c0-4.8-0.7-9.5-1.9-13.8L78.6,37.2z"/><path xmlns="http://www.w3.org/2000/svg" d="M18.2,39.6c-1.3,1.3-2.1,3.1-2.1,5.1c0,2,0.8,3.8,2.1,5.1c1.3,1.3,3.1,2.1,5.1,2.1c2,0,3.8-0.8,5.1-2.1  c1.3-1.3,2.1-3.1,2.1-5.1c0-2-0.8-3.8-2.1-5.1c-1.3-1.3-3.1-2.1-5.1-2.1C21.3,37.4,19.5,38.2,18.2,39.6z M26.9,44.7  c0,1-0.4,1.9-1.1,2.6c-0.7,0.7-1.6,1.1-2.6,1.1c-1,0-1.9-0.4-2.6-1.1c-0.7-0.7-1.1-1.6-1.1-2.6c0-1,0.4-1.9,1.1-2.6  c0.7-0.7,1.6-1.1,2.6-1.1c1,0,1.9,0.4,2.6,1.1C26.5,42.8,26.9,43.7,26.9,44.7z"/><path xmlns="http://www.w3.org/2000/svg" d="M36.5,33.6c1.3-1.3,2.1-3.1,2.1-5.1c0-2-0.8-3.8-2.1-5.1c-1.3-1.3-3.1-2.1-5.1-2.1c-2,0-3.8,0.8-5.1,2.1  c-1.3,1.3-2.1,3.1-2.1,5.1c0,2,0.8,3.8,2.1,5.1c1.3,1.3,3.1,2.1,5.1,2.1C33.4,35.8,35.2,35,36.5,33.6z M27.8,28.5  c0-1,0.4-1.9,1.1-2.6c0.7-0.7,1.6-1.1,2.6-1.1c1,0,1.9,0.4,2.6,1.1c0.7,0.7,1.1,1.6,1.1,2.6c0,1-0.4,1.9-1.1,2.6  c-0.7,0.7-1.6,1.1-2.6,1.1c-1,0-1.9-0.4-2.6-1.1C28.2,30.4,27.8,29.5,27.8,28.5z"/><path xmlns="http://www.w3.org/2000/svg" d="M48.2,29c2,0,3.8-0.8,5.1-2.1c1.3-1.3,2.1-3.1,2.1-5.1c0-2-0.8-3.8-2.1-5.1c-1.3-1.3-3.1-2.1-5.1-2.1  c-2,0-3.8,0.8-5.1,2.1c-1.3,1.3-2.1,3.1-2.1,5.1c0,2,0.8,3.8,2.1,5.1C44.4,28.2,46.2,29,48.2,29z M45.7,19.2  c0.7-0.7,1.6-1.1,2.6-1.1c1,0,1.9,0.4,2.6,1.1c0.7,0.7,1.1,1.6,1.1,2.6c0,1-0.4,1.9-1.1,2.6c-0.7,0.7-1.6,1.1-2.6,1.1  c-1,0-1.9-0.4-2.6-1.1c-0.7-0.7-1.1-1.6-1.1-2.6C44.6,20.8,45,19.9,45.7,19.2z"/></g><g id="SvgjsG1459" featureKey="nameFeature-0" transform="matrix(0.7193034908434123,0,0,0.7193034908434123,119.7190855271563,31.680295907073575)" fill="#000"><path d="M17.969 21.523 c0.625 -0.091152 1.2109 -0.31248 1.7578 -0.66404 c0.40365 0.26041 0.8659 0.45572 1.3867 0.58594 l0 0.15625 l0.019531 0.3125 c-0.625 0.40365 -1.2956 0.60547 -2.0117 0.60547 c-0.65104 0 -1.263 -0.16275 -1.8359 -0.48828 c0.23438 -0.13021 0.46225 -0.29949 0.68359 -0.50783 z M24.453 20.957 c0.039063 -0.026035 0.091133 -0.065098 0.15623 -0.11719 c0.32553 0.50781 0.73568 0.90494 1.2305 1.1914 c-0.57291 0.32553 -1.1849 0.48828 -1.8359 0.48828 c-0.71615 0 -1.3802 -0.19531 -1.9922 -0.58594 l0 -0.37109 l0.078125 0.019531 l0.078125 0 c0.80729 0 1.569 -0.20834 2.2852 -0.625 z M12.461 17.48 c1.25 0 2.2266 0.3451 2.9297 1.0352 c-0.35156 -0.05209 -0.71615 -0.078125 -1.0938 -0.078125 c-1.4583 0 -2.6236 0.49479 -3.4961 1.4844 c-0.42969 0.54688 -0.72916 1.1068 -0.89844 1.6797 c-0.20834 0.6901 -0.33855 1.7318 -0.39064 3.125 l0 0.13672 c-0.59896 -0.52084 -0.91146 -1.1784 -0.9375 -1.9727 c0.05209 -1.3151 0.16928 -2.2852 0.35156 -2.9102 c0.13021 -0.44271 0.36459 -0.87891 0.70313 -1.3086 c0.70313 -0.79428 1.6471 -1.1914 2.832 -1.1914 z M24.004 33.0664 c0.65104 0 1.2631 0.16273 1.836 0.48826 c-0.78125 0.44271 -1.3281 1.1068 -1.6406 1.9922 c-0.70313 1.9662 -1.862 3.5092 -3.4766 4.6289 c-1.7578 1.237 -3.8998 1.8555 -6.4258 1.8555 c-2.0834 0 -3.9518 -0.50781 -5.6055 -1.5234 c1.1979 0.39063 2.4545 0.58594 3.7695 0.58594 c2.6041 0 4.8438 -0.6185 6.7188 -1.8555 s3.2162 -2.9818 4.0234 -5.2344 c0.11719 -0.33854 0.29947 -0.64453 0.54688 -0.91797 l0.11719 -0.019531 l0.13672 0 z M9.7461 33.3594 l-0.078145 -0.097619 c-0.35156 -0.44271 -0.59244 -0.88543 -0.72266 -1.3281 c-0.19531 -0.625 -0.319 -1.5951 -0.37109 -2.9102 c0.039063 -1.0156 0.49479 -1.7838 1.3672 -2.3047 c0.05209 -0.013027 0.10418 -0.05209 0.15627 -0.11719 c0.32553 0.50781 0.73568 0.90494 1.2305 1.1914 c-1.1719 0.6901 -1.7773 1.7122 -1.8164 3.0664 c0.039063 1.0417 0.11719 1.875 0.23438 2.5 z M22.168 20.684 c-0.71615 0 -1.3802 -0.19535 -1.9922 -0.58598 l0 -0.44922 c-0.013027 -0.05209 -0.019531 -0.11719 -0.019531 -0.19531 c-0.039063 -0.22135 -0.084629 -0.44922 -0.13672 -0.68359 c-0.18229 -0.75521 -0.47525 -1.4453 -0.87891 -2.0703 c-1.3021 -1.9922 -3.4701 -2.9883 -6.5039 -2.9883 c-2.4869 0 -4.375 0.64453 -5.6641 1.9336 c-1.0156 1.0287 -1.7122 2.526 -2.0898 4.4922 c-0.26041 1.3932 -0.39063 3.2227 -0.39063 5.4883 l0 0.33203 c0.026035 3.9713 0.46223 6.8164 1.3086 8.5352 c1.1979 2.474 3.4766 3.7109 6.8359 3.7109 c3.0338 0 5.2018 -0.99609 6.5039 -2.9883 c0.40365 -0.625 0.69662 -1.3151 0.87891 -2.0703 c0.05209 -0.23438 0.097656 -0.46875 0.13672 -0.70313 c0 -0.065098 0.0065041 -0.1302 0.019531 -0.19529 l0 -0.42969 c0.61197 -0.39063 1.276 -0.58594 1.9922 -0.58594 c0.65104 0 1.263 0.16275 1.8359 0.48828 c-0.78125 0.44271 -1.3281 1.1068 -1.6406 1.9922 c-0.70313 1.9531 -1.862 3.4961 -3.4766 4.6289 c-1.7578 1.237 -3.8998 1.8555 -6.4258 1.8555 c-2.9947 0 -5.5143 -1.0221 -7.5586 -3.0664 c-1.2109 -1.2109 -1.9727 -2.6172 -2.2852 -4.2188 c-0.19531 -0.96354 -0.32553 -2.2266 -0.39063 -3.7891 c0 -1.4063 -0.61197 -2.4609 -1.8359 -3.1641 c1.224 -0.70313 1.8359 -1.7578 1.8359 -3.1641 c0.065098 -1.5625 0.19531 -2.832 0.39063 -3.8086 c0.3125 -1.5885 1.0742 -2.9883 2.2852 -4.1992 c2.0572 -2.0443 4.5768 -3.0664 7.5586 -3.0664 c2.526 0 4.668 0.61197 6.4258 1.8359 c1.6146 1.1328 2.7734 2.6822 3.4766 4.6484 c0.29947 0.8724 0.84635 1.5365 1.6406 1.9922 c-0.57291 0.32553 -1.1849 0.48828 -1.8359 0.48828 z M16.426 19.395 c0.10416 -0.15625 0.16271 -0.31889 0.17574 -0.48816 l0 -0.039063 c0 -0.20834 -0.078125 -0.41668 -0.23438 -0.62502 c-0.89844 -1.0938 -2.2006 -1.6406 -3.9063 -1.6406 c-1.4583 0 -2.6236 0.49479 -3.4961 1.4844 c-0.42969 0.54688 -0.72916 1.1068 -0.89844 1.6797 c-0.20834 0.6901 -0.33855 1.7318 -0.39064 3.125 c0.039063 1.3672 0.64453 2.3893 1.8164 3.0664 c-1.1719 0.67709 -1.7773 1.6992 -1.8164 3.0664 c0.05209 1.3932 0.1823 2.435 0.39064 3.125 c0.16928 0.57291 0.46875 1.1328 0.89844 1.6797 c0.8724 0.98959 2.0377 1.4844 3.4961 1.4844 c1.7057 0 3.0078 -0.55338 3.9063 -1.6602 c0.15625 -0.19531 0.23438 -0.39713 0.23438 -0.60547 l0 -0.039063 c-0.013027 -0.16928 -0.071621 -0.33203 -0.17578 -0.48828 c-0.20834 -0.28646 -0.53387 -0.5534 -0.97658 -0.8008 c0.57291 -0.32553 1.1849 -0.48828 1.8359 -0.48828 c0.71615 0 1.3867 0.20182 2.0117 0.60547 l-0.019531 0.3125 l0 0.097656 c-0.013027 0.05209 -0.019531 0.11068 -0.019531 0.17578 c-0.026035 0.20834 -0.065098 0.41668 -0.11719 0.62502 c-0.15625 0.63803 -0.41666 1.224 -0.78125 1.7578 c-1.1328 1.6667 -3.0404 2.5 -5.7227 2.5 c-2.8646 0 -4.8242 -0.95053 -5.8789 -2.8516 c-0.88541 -1.6016 -1.3411 -4.4336 -1.3672 -8.4961 l0 -0.35156 c0 -2.1484 0.11719 -3.8736 0.35156 -5.1758 c0.33854 -1.849 0.96354 -3.2291 1.875 -4.1406 c1.1198 -1.1198 2.793 -1.6797 5.0195 -1.6797 c2.6693 0 4.5703 0.83334 5.7031 2.5 c0.36459 0.52084 0.63152 1.1068 0.8008 1.7578 c0.05209 0.20834 0.091152 0.41016 0.11719 0.60547 c0 0.065098 0.0065041 0.1302 0.019531 0.19529 l0 0.097656 l0.019531 0.3125 c-0.625 0.40365 -1.2956 0.60547 -2.0117 0.60547 c-0.65104 0 -1.263 -0.16275 -1.8359 -0.48828 c0.44271 -0.2474 0.76824 -0.51434 0.97658 -0.8008 z M38.18384375 22.988 l0.74219 2.2266 l-1.4844 4.2773 l-1.5234 0 z M44.41384375 14.043 c-0.57291 0.32553 -0.98959 0.78125 -1.25 1.3672 c-0.14322 0.32553 -0.21484 0.65756 -0.21484 0.99609 c0 0.28646 0.05209 0.57943 0.15625 0.87891 c-0.49479 -1.3672 -0.76822 -2.1094 -0.82031 -2.2266 c-0.078125 -0.23438 -0.11719 -0.45572 -0.11719 -0.66406 c0 -0.29947 0.078125 -0.57291 0.23438 -0.82031 l0.097656 -0.019531 l0.078125 0 c0.66406 0 1.276 0.16275 1.8359 0.48828 z M42.42184375 35.8984 c0.11719 0.32553 0.22785 0.63799 0.33201 0.93746 l-7.793 0 c0 0.013027 -0.026035 0.091152 -0.078125 0.23438 l-0.019531 0.097656 l-0.039063 0.11719 l-0.097656 0.25391 c-0.14322 0.49479 -0.24738 0.82031 -0.31248 0.97656 l-0.078125 0.25391 c-0.45572 -0.32553 -0.78125 -0.74219 -0.97656 -1.25 c-0.013027 -0.026035 -0.019531 -0.065098 -0.019531 -0.11719 c0 -0.10416 0.032559 -0.24738 0.097656 -0.42967 c0.026035 -0.10416 0.078125 -0.26041 0.15625 -0.46875 c0.05209 -0.18229 0.11068 -0.3841 0.17578 -0.60545 l8.6523 0 z M49.10184375 27.793 c-0.42969 0.50781 -0.72266 1.0873 -0.87891 1.7383 c-0.078125 0.29947 -0.11719 0.59895 -0.11719 0.89842 c0 0.36459 0.065098 0.72266 0.19531 1.0742 l-0.83984 -2.2656 c-0.11719 -0.3125 -0.17578 -0.625 -0.17578 -0.9375 c0 -0.39063 0.091152 -0.78125 0.27344 -1.1719 c0.48178 0.35156 0.99609 0.57291 1.543 0.66406 z M48.085843749999995 40.93748 l0.058594 0.21484 c-0.67709 0.58594 -1.4648 0.87891 -2.3633 0.87891 c-0.65104 0 -1.263 -0.16275 -1.8359 -0.48828 c0.20834 -0.11719 0.42969 -0.28646 0.66406 -0.50781 c0.76822 -0.11719 1.4583 -0.41016 2.0703 -0.87891 l0.13672 0.11719 c0.39063 0.27344 0.80729 0.47525 1.25 0.60547 z M51.87484375 40.35154 c0.32553 0.52084 0.72918 0.91797 1.211 1.1914 c-0.57291 0.32553 -1.1849 0.48828 -1.8359 0.48828 c-0.75521 0 -1.4518 -0.22135 -2.0898 -0.66406 l-0.097656 -0.29297 l0.17578 0 l0.17578 0.019531 c0.80729 0 1.5625 -0.20182 2.2656 -0.60547 c0.065098 -0.039063 0.1302 -0.084629 0.19529 -0.13672 z M34.706843750000004 40.35154 c0.33854 0.50781 0.74867 0.90494 1.2304 1.1914 c-0.5599 0.32553 -1.1654 0.48828 -1.8164 0.48828 c-0.89844 0 -1.6927 -0.29947 -2.3828 -0.89844 l0.039063 -0.078125 l0.25391 0.019531 l0.25391 0.019531 c0.82031 0 1.5755 -0.20182 2.2656 -0.60547 c0.05209 -0.039063 0.10418 -0.084629 0.15627 -0.13672 z M29.53124375 40.15623 c0.40365 0.3125 0.85285 0.54689 1.3476 0.70314 l-0.17578 0.52734 c-0.61197 0.42969 -1.2956 0.64453 -2.0508 0.64453 c-0.65104 0 -1.263 -0.16275 -1.8359 -0.48828 c0.20834 -0.11719 0.42318 -0.28646 0.64453 -0.50781 c0.70313 -0.091152 1.3412 -0.33855 1.9141 -0.74221 c0.065098 -0.039063 0.11719 -0.084629 0.15625 -0.13672 z M47.48084375 31.875 c0.091152 0.26041 0.22139 0.62498 0.39066 1.0937 l0.19531 0.54688 l0.19531 0.50781 c0.58594 1.6276 1.0287 2.8451 1.3281 3.6523 c0.33854 0.91146 0.89191 1.5886 1.6601 2.0313 c-0.57291 0.32553 -1.1849 0.48828 -1.8359 0.48828 c-0.75521 0 -1.4518 -0.22135 -2.0898 -0.66406 l-2.4219 -7.2461 l-6.5234 -19.688 c0.6901 -0.58594 1.4779 -0.87891 2.3633 -0.87891 c0.66406 0 1.276 0.16275 1.8359 0.48828 c-0.5599 0.32553 -0.94402 0.76824 -1.1524 1.3281 c-0.10416 0.27344 -0.15625 0.5599 -0.15625 0.85938 c0 0.3125 0.058594 0.63803 0.17578 0.97656 c0.026035 0.05209 0.11719 0.306 0.27344 0.76172 c0.19531 0.52084 0.42318 1.1328 0.68359 1.8359 c0.70313 1.9271 1.3867 3.8086 2.0508 5.6445 c0.48178 1.3151 1.4193 2.0963 2.8125 2.3438 c-0.59896 0.70313 -0.89844 1.4583 -0.89844 2.2656 c0 0.42969 0.084629 0.8724 0.25391 1.3281 c0.2474 0.66406 0.53387 1.4388 0.85939 2.3242 z M44.25784375 33.1445 l1.9922 5.957 l0.058594 0.21484 c-0.67709 0.58594 -1.4648 0.87891 -2.3633 0.87891 c-0.65104 0 -1.263 -0.16275 -1.8359 -0.48828 c0.75521 -0.44271 1.2891 -1.0677 1.6016 -1.875 c0.039063 -0.11719 0.058594 -0.2474 0.058594 -0.39063 c0 -0.22135 -0.045566 -0.47525 -0.13672 -0.76172 c-0.05209 -0.16928 -0.15625 -0.4948 -0.3125 -0.97658 l-0.097656 -0.25391 c-0.026035 -0.065098 -0.05207 -0.13672 -0.078105 -0.21484 c-0.039063 -0.14322 -0.065098 -0.22135 -0.078125 -0.23438 l-9.9414 0 c0 0.013027 -0.026035 0.091152 -0.078125 0.23438 l-0.039063 0.097656 l-0.019531 0.11719 l-0.097656 0.25391 c-0.14322 0.49479 -0.24738 0.82031 -0.31248 0.97656 c-0.091152 0.27344 -0.13672 0.51432 -0.13672 0.72266 c0 0.15625 0.026035 0.29947 0.078125 0.42969 c0.29947 0.80729 0.82682 1.4323 1.582 1.875 c-0.5599 0.32553 -1.1654 0.48828 -1.8164 0.48828 c-0.89844 0 -1.6927 -0.29947 -2.3828 -0.89844 l2.0313 -6.1523 l12.324 0 z M38.20284375 20.215 l-3.5547 10.176 l6.9727 0 z M43.96484375 32.2461 l-11.738 0 l5.8789 -17.637 z M31.26934375 32.2461 l-2.4023 7.3047 c-0.61197 0.42969 -1.2956 0.64453 -2.0508 0.64453 c-0.65104 0 -1.263 -0.16275 -1.8359 -0.48828 c0.76822 -0.44271 1.3151 -1.1198 1.6406 -2.0313 c0.27344 -0.72916 0.71615 -1.9466 1.3281 -3.6523 l0.19531 -0.52734 l0.19531 -0.52734 c0.14322 -0.40365 0.27344 -0.76824 0.39063 -1.0938 c0.29947 -0.84635 0.57941 -1.6211 0.83982 -2.3242 c0.16928 -0.45572 0.25391 -0.89844 0.25391 -1.3281 c0 -0.80729 -0.29297 -1.5625 -0.87891 -2.2656 c1.3802 -0.2474 2.3111 -1.0287 2.793 -2.3438 c0.6901 -1.875 1.3737 -3.7564 2.0508 -5.6445 c0.59896 -1.6276 0.91797 -2.4936 0.95703 -2.5977 c0.11719 -0.33854 0.17578 -0.66406 0.17578 -0.97656 c0 -0.29947 -0.05209 -0.58594 -0.15625 -0.85938 c-0.20834 -0.5599 -0.59246 -1.0026 -1.1524 -1.3281 c0.57291 -0.32553 1.1849 -0.48828 1.8359 -0.48828 c0.89844 0 1.6927 0.29297 2.3828 0.87891 z M76.6605625 20.566 c0 -1.0026 -0.13021 -1.9662 -0.39063 -2.8906 c0.88541 1.3932 1.3281 2.9688 1.3281 4.7266 c0 1.8229 -0.50131 3.3984 -1.5039 4.7266 c-0.88541 1.1719 -2.0508 2.0313 -3.4961 2.5781 l-0.70313 -1.3477 c1.5104 -0.72916 2.6822 -1.7708 3.5156 -3.125 c0.83334 -1.3672 1.25 -2.9232 1.25 -4.668 z M78.5155625 40.48824 c0.46875 0.46875 0.91799 0.83334 1.3477 1.0938 c-0.59896 0.32553 -1.2175 0.48828 -1.8555 0.48828 c-0.74219 0 -1.4388 -0.18229 -2.0898 -0.54688 l-0.19531 -0.42969 l0.21484 0.019531 l0.23438 0.019531 c0.79428 0 1.556 -0.20182 2.2852 -0.60547 l0.039063 -0.019531 z M64.9995625 30.664099999999998 l-1.9922 0 l0 7.8711 l0.019531 0.11719 c-0.63803 -0.54688 -0.95703 -1.237 -0.95703 -2.0703 l0 -6.8555 l2.4609 0 z M66.3285625 17.773 c1.0547 0 1.862 0.32553 2.4219 0.97656 c-0.20834 -0.026035 -0.40365 -0.039063 -0.58594 -0.039063 l-5.1563 0 l0 4.6484 l-0.9375 0 l0 -5.5859 l4.2578 0 z M58.4374625 40.2148 c0.41666 0.3125 0.87889 0.54688 1.3867 0.70313 l0 0.35156 c-0.67709 0.53385 -1.4388 0.80078 -2.2852 0.80078 c-0.65104 0 -1.263 -0.16275 -1.8359 -0.48828 c0.23438 -0.14322 0.46225 -0.3125 0.68359 -0.50781 c0.75521 -0.11719 1.4388 -0.40365 2.0508 -0.85938 z M73.6525625 40.46871 c0.26041 0.14322 0.57291 0.27342 0.9375 0.39061 l0.15625 0.33203 c-0.61197 0.58594 -1.3477 0.87891 -2.207 0.87891 c-0.65104 0 -1.25 -0.16275 -1.7969 -0.48828 c0.23438 -0.14322 0.41016 -0.3125 0.52734 -0.50781 c0.79428 -0.10416 1.4844 -0.40363 2.0703 -0.89842 c0.078125 0.11719 0.18229 0.21484 0.3125 0.29297 z M63.593562500000004 40.39057 c0.32553 0.50781 0.73564 0.90492 1.2304 1.1914 c-0.57291 0.32553 -1.1784 0.48828 -1.8164 0.48828 c-0.85938 0 -1.6211 -0.26693 -2.2852 -0.80078 l0 -0.17578 l0.21484 0.019531 l0.23438 0.019531 c0.79428 0 1.5495 -0.20182 2.2656 -0.60547 c0.05209 -0.026035 0.10418 -0.071602 0.15627 -0.1367 z M75.1365625 36.5625 c0.74219 1.4063 1.7057 2.4674 2.8906 3.1836 c-0.59896 0.32553 -1.2175 0.48828 -1.8555 0.48828 c-0.74219 0 -1.4388 -0.18229 -2.0898 -0.54688 l-6.4063 -12.734 c1.7708 -0.23438 3.19 -0.91146 4.2578 -2.0313 c1.0547 -1.1328 1.582 -2.5521 1.582 -4.2578 c0 -2.1484 -0.76172 -3.8346 -2.2852 -5.0586 c-1.3412 -1.0807 -2.9623 -1.6211 -4.8633 -1.6211 l-8.3789 0 l0 25.449 c-0.67709 0.53385 -1.4388 0.80078 -2.2852 0.80078 c-0.65104 0 -1.263 -0.16275 -1.8359 -0.48828 c1.224 -0.71615 1.8359 -1.7708 1.8359 -3.1641 l0 -7.4609 c-0.013027 -1.3802 -0.625 -2.4219 -1.8359 -3.125 c1.2109 -0.70313 1.8229 -1.7513 1.8359 -3.1445 l0 -7.2461 c-0.013027 -1.3802 -0.625 -2.4219 -1.8359 -3.125 c0.57291 -0.32553 1.1849 -0.48828 1.8359 -0.48828 l10.977 0 c2.7604 0 4.9869 0.83984 6.6797 2.5195 c1.6016 1.6016 2.4023 3.6197 2.4023 6.0547 c0 1.849 -0.51432 3.4439 -1.543 4.7852 c-0.89844 1.1719 -2.0898 2.0248 -3.5742 2.5586 z M66.4065625 27.051000000000002 l0.13672 -0.019531 l0.15625 0 l6.2109 12.324 c-0.61197 0.58594 -1.3477 0.87891 -2.207 0.87891 c-0.65104 0 -1.2565 -0.16275 -1.8164 -0.48828 c0.46875 -0.27344 0.70313 -0.65104 0.70313 -1.1328 l0 -0.15625 c-0.039063 -0.40365 -0.26693 -1.0352 -0.68359 -1.8945 l-3.8086 -7.7344 l-3.9258 0 l0 7.7539 c0 1.3932 0.60547 2.4479 1.8164 3.1641 c-0.57291 0.32553 -1.1784 0.48828 -1.8164 0.48828 c-0.85938 0 -1.6211 -0.26693 -2.2852 -0.80078 l0 -12.383 l7.5195 0 z M66.3285625 24.258 c1.1849 0 2.1484 -0.34508 2.8906 -1.0352 c0.71615 -0.6901 1.0742 -1.5755 1.0742 -2.6563 c0 -1.0938 -0.35807 -1.9791 -1.0742 -2.6563 c-0.74219 -0.6901 -1.7057 -1.0352 -2.8906 -1.0352 l-5.1563 0 l0 7.3828 l5.1563 0 z M67.1285625 26.113 c-0.27344 0.026035 -0.51432 0.039043 -0.72266 0.039043 l-7.5195 0 l0 -11.27 l7.4805 0 c0.61197 0 1.2435 0.084629 1.8945 0.25391 c0.75521 0.20834 1.4323 0.51434 2.0313 0.91799 c1.5495 1.0417 2.3242 2.5781 2.3242 4.6094 c0 1.6927 -0.56641 3.0209 -1.6992 3.9844 c-0.95053 0.82031 -2.1811 1.3021 -3.6914 1.4453 z M85.41020625 40.17578 c0.41666 0.3125 0.87889 0.54689 1.3867 0.70314 l0 0.35156 c-0.67709 0.53385 -1.4388 0.80078 -2.2852 0.80078 c-0.65104 0 -1.263 -0.16275 -1.8359 -0.48828 c0.23438 -0.13021 0.45572 -0.29949 0.66406 -0.50783 c0.75521 -0.11719 1.4453 -0.40365 2.0703 -0.85938 z M91.81690625 14.043 c-1.224 0.70313 -1.8359 1.7578 -1.8359 3.1641 l0 7.5391 l0.019531 0.11719 c-0.63803 -0.54688 -0.95703 -1.237 -0.95703 -2.0703 l0 -7.4219 c0 -0.67709 0.22135 -1.2761 0.66406 -1.7969 l0.13672 -0.019531 l0.13672 0 c0.65104 0 1.263 0.16275 1.8359 0.48828 z M90.56690625 40.37113 c0.32553 0.49479 0.73566 0.88541 1.2304 1.1719 c-0.5599 0.32553 -1.1654 0.48828 -1.8164 0.48828 c-0.84635 0 -1.6081 -0.26693 -2.2852 -0.80078 l0 -0.17578 l0.21484 0.019531 l0.23438 0.019531 c0.80729 0 1.5625 -0.20182 2.2656 -0.60547 c0.05209 -0.026035 0.10418 -0.065098 0.15627 -0.11719 z M90.56690625 26.621000000000002 c0.32553 0.49479 0.73566 0.88541 1.2304 1.1719 c-1.2109 0.70313 -1.8164 1.7578 -1.8164 3.1641 l0 7.6563 c-0.625 -0.54688 -0.9375 -1.237 -0.9375 -2.0703 l0 -7.4219 c0 -1.0547 0.45572 -1.849 1.3672 -2.3828 c0.05209 -0.026035 0.10418 -0.065098 0.15627 -0.11719 z M88.14450625 11.719000000000001 c0.65104 0 1.263 0.16275 1.8359 0.48828 c-1.224 0.70313 -1.8359 1.7578 -1.8359 3.1641 l0 7.4219 c0 1.4063 0.60547 2.4609 1.8164 3.1641 c-1.2109 0.70313 -1.8164 1.7578 -1.8164 3.1641 l0 7.4219 c0 1.3932 0.60547 2.4479 1.8164 3.1641 c-0.5599 0.32553 -1.1654 0.48828 -1.8164 0.48828 c-0.84635 0 -1.6081 -0.26693 -2.2852 -0.80078 l0 -26.875 c0.67709 -0.53385 1.4388 -0.80078 2.2852 -0.80078 z M82.67580625 11.719000000000001 c0.84635 0 1.608 0.26693 2.2852 0.80078 l0 26.855 c-0.67709 0.54688 -1.4388 0.82031 -2.2852 0.82031 c-0.65104 0 -1.263 -0.16275 -1.8359 -0.48828 c1.224 -0.71615 1.8359 -1.7708 1.8359 -3.1641 l0 -7.4219 c0 -1.4063 -0.61197 -2.4609 -1.8359 -3.1641 c1.224 -0.70313 1.8359 -1.7578 1.8359 -3.1641 l0 -7.4219 c0 -1.4063 -0.61197 -2.4609 -1.8359 -3.1641 c0.5599 -0.32553 1.1719 -0.48828 1.8359 -0.48828 z M110.37134375 21.523 c0.625 -0.091152 1.2109 -0.31248 1.7578 -0.66404 c0.40365 0.26041 0.8659 0.45572 1.3867 0.58594 l0 0.15625 l0.019531 0.3125 c-0.625 0.40365 -1.2956 0.60547 -2.0117 0.60547 c-0.65104 0 -1.263 -0.16275 -1.8359 -0.48828 c0.23438 -0.13021 0.46225 -0.29949 0.68359 -0.50783 z M116.85534375 20.957 c0.039063 -0.026035 0.091133 -0.065098 0.15623 -0.11719 c0.32553 0.50781 0.73568 0.90494 1.2305 1.1914 c-0.57291 0.32553 -1.1849 0.48828 -1.8359 0.48828 c-0.71615 0 -1.3802 -0.19531 -1.9922 -0.58594 l0 -0.37109 l0.078125 0.019531 l0.078125 0 c0.80729 0 1.569 -0.20834 2.2852 -0.625 z M104.86334375 17.48 c1.25 0 2.2266 0.3451 2.9297 1.0352 c-0.35156 -0.05209 -0.71615 -0.078125 -1.0938 -0.078125 c-1.4583 0 -2.6236 0.49479 -3.4961 1.4844 c-0.42969 0.54688 -0.72916 1.1068 -0.89844 1.6797 c-0.20834 0.6901 -0.33855 1.7318 -0.39064 3.125 l0 0.13672 c-0.59896 -0.52084 -0.91146 -1.1784 -0.9375 -1.9727 c0.05209 -1.3151 0.16928 -2.2852 0.35156 -2.9102 c0.13021 -0.44271 0.36459 -0.87891 0.70313 -1.3086 c0.70313 -0.79428 1.6471 -1.1914 2.832 -1.1914 z M116.40634375 33.0664 c0.65104 0 1.2631 0.16273 1.836 0.48826 c-0.78125 0.44271 -1.3281 1.1068 -1.6406 1.9922 c-0.70313 1.9662 -1.862 3.5092 -3.4766 4.6289 c-1.7578 1.237 -3.8998 1.8555 -6.4258 1.8555 c-2.0834 0 -3.9518 -0.50781 -5.6055 -1.5234 c1.1979 0.39063 2.4545 0.58594 3.7695 0.58594 c2.6041 0 4.8438 -0.6185 6.7188 -1.8555 s3.2162 -2.9818 4.0234 -5.2344 c0.11719 -0.33854 0.29947 -0.64453 0.54688 -0.91797 l0.11719 -0.019531 l0.13672 0 z M102.14844375 33.3594 l-0.078145 -0.097619 c-0.35156 -0.44271 -0.59244 -0.88543 -0.72266 -1.3281 c-0.19531 -0.625 -0.319 -1.5951 -0.37109 -2.9102 c0.039063 -1.0156 0.49479 -1.7838 1.3672 -2.3047 c0.05209 -0.013027 0.10418 -0.05209 0.15627 -0.11719 c0.32553 0.50781 0.73568 0.90494 1.2305 1.1914 c-1.1719 0.6901 -1.7773 1.7122 -1.8164 3.0664 c0.039063 1.0417 0.11719 1.875 0.23438 2.5 z M114.57034375 20.684 c-0.71615 0 -1.3802 -0.19535 -1.9922 -0.58598 l0 -0.44922 c-0.013027 -0.05209 -0.019531 -0.11719 -0.019531 -0.19531 c-0.039063 -0.22135 -0.084629 -0.44922 -0.13672 -0.68359 c-0.18229 -0.75521 -0.47525 -1.4453 -0.87891 -2.0703 c-1.3021 -1.9922 -3.4701 -2.9883 -6.5039 -2.9883 c-2.4869 0 -4.375 0.64453 -5.6641 1.9336 c-1.0156 1.0287 -1.7122 2.526 -2.0898 4.4922 c-0.26041 1.3932 -0.39063 3.2227 -0.39063 5.4883 l0 0.33203 c0.026035 3.9713 0.46223 6.8164 1.3086 8.5352 c1.1979 2.474 3.4766 3.7109 6.8359 3.7109 c3.0338 0 5.2018 -0.99609 6.5039 -2.9883 c0.40365 -0.625 0.69662 -1.3151 0.87891 -2.0703 c0.05209 -0.23438 0.097656 -0.46875 0.13672 -0.70313 c0 -0.065098 0.0065041 -0.1302 0.019531 -0.19529 l0 -0.42969 c0.61197 -0.39063 1.276 -0.58594 1.9922 -0.58594 c0.65104 0 1.263 0.16275 1.8359 0.48828 c-0.78125 0.44271 -1.3281 1.1068 -1.6406 1.9922 c-0.70313 1.9531 -1.862 3.4961 -3.4766 4.6289 c-1.7578 1.237 -3.8998 1.8555 -6.4258 1.8555 c-2.9947 0 -5.5143 -1.0221 -7.5586 -3.0664 c-1.2109 -1.2109 -1.9727 -2.6172 -2.2852 -4.2188 c-0.19531 -0.96354 -0.32553 -2.2266 -0.39063 -3.7891 c0 -1.4063 -0.61197 -2.4609 -1.8359 -3.1641 c1.224 -0.70313 1.8359 -1.7578 1.8359 -3.1641 c0.065098 -1.5625 0.19531 -2.832 0.39063 -3.8086 c0.3125 -1.5885 1.0742 -2.9883 2.2852 -4.1992 c2.0572 -2.0443 4.5768 -3.0664 7.5586 -3.0664 c2.526 0 4.668 0.61197 6.4258 1.8359 c1.6146 1.1328 2.7734 2.6822 3.4766 4.6484 c0.29947 0.8724 0.84635 1.5365 1.6406 1.9922 c-0.57291 0.32553 -1.1849 0.48828 -1.8359 0.48828 z M108.82834375 19.395 c0.10416 -0.15625 0.16271 -0.31889 0.17574 -0.48816 l0 -0.039063 c0 -0.20834 -0.078125 -0.41668 -0.23438 -0.62502 c-0.89844 -1.0938 -2.2006 -1.6406 -3.9063 -1.6406 c-1.4583 0 -2.6236 0.49479 -3.4961 1.4844 c-0.42969 0.54688 -0.72916 1.1068 -0.89844 1.6797 c-0.20834 0.6901 -0.33855 1.7318 -0.39064 3.125 c0.039063 1.3672 0.64453 2.3893 1.8164 3.0664 c-1.1719 0.67709 -1.7773 1.6992 -1.8164 3.0664 c0.05209 1.3932 0.1823 2.435 0.39064 3.125 c0.16928 0.57291 0.46875 1.1328 0.89844 1.6797 c0.8724 0.98959 2.0377 1.4844 3.4961 1.4844 c1.7057 0 3.0078 -0.55338 3.9063 -1.6602 c0.15625 -0.19531 0.23438 -0.39713 0.23438 -0.60547 l0 -0.039063 c-0.013027 -0.16928 -0.071621 -0.33203 -0.17578 -0.48828 c-0.20834 -0.28646 -0.53387 -0.5534 -0.97658 -0.8008 c0.57291 -0.32553 1.1849 -0.48828 1.8359 -0.48828 c0.71615 0 1.3867 0.20182 2.0117 0.60547 l-0.019531 0.3125 l0 0.097656 c-0.013027 0.05209 -0.019531 0.11068 -0.019531 0.17578 c-0.026035 0.20834 -0.065098 0.41668 -0.11719 0.62502 c-0.15625 0.63803 -0.41666 1.224 -0.78125 1.7578 c-1.1328 1.6667 -3.0404 2.5 -5.7227 2.5 c-2.8646 0 -4.8242 -0.95053 -5.8789 -2.8516 c-0.88541 -1.6016 -1.3411 -4.4336 -1.3672 -8.4961 l0 -0.35156 c0 -2.1484 0.11719 -3.8736 0.35156 -5.1758 c0.33854 -1.849 0.96354 -3.2291 1.875 -4.1406 c1.1198 -1.1198 2.793 -1.6797 5.0195 -1.6797 c2.6693 0 4.5703 0.83334 5.7031 2.5 c0.36459 0.52084 0.63152 1.1068 0.8008 1.7578 c0.05209 0.20834 0.091152 0.41016 0.11719 0.60547 c0 0.065098 0.0065041 0.1302 0.019531 0.19529 l0 0.097656 l0.019531 0.3125 c-0.625 0.40365 -1.2956 0.60547 -2.0117 0.60547 c-0.65104 0 -1.263 -0.16275 -1.8359 -0.48828 c0.44271 -0.2474 0.76824 -0.51434 0.97658 -0.8008 z M130.5861875 22.988 l0.74219 2.2266 l-1.4844 4.2773 l-1.5234 0 z M136.8161875 14.043 c-0.57291 0.32553 -0.98959 0.78125 -1.25 1.3672 c-0.14322 0.32553 -0.21484 0.65756 -0.21484 0.99609 c0 0.28646 0.05209 0.57943 0.15625 0.87891 c-0.49479 -1.3672 -0.76822 -2.1094 -0.82031 -2.2266 c-0.078125 -0.23438 -0.11719 -0.45572 -0.11719 -0.66406 c0 -0.29947 0.078125 -0.57291 0.23438 -0.82031 l0.097656 -0.019531 l0.078125 0 c0.66406 0 1.276 0.16275 1.8359 0.48828 z M134.8241875 35.8984 c0.11719 0.32553 0.22785 0.63799 0.33201 0.93746 l-7.793 0 c0 0.013027 -0.026035 0.091152 -0.078125 0.23438 l-0.019531 0.097656 l-0.039063 0.11719 l-0.097656 0.25391 c-0.14322 0.49479 -0.24738 0.82031 -0.31248 0.97656 l-0.078125 0.25391 c-0.45572 -0.32553 -0.78125 -0.74219 -0.97656 -1.25 c-0.013027 -0.026035 -0.019531 -0.065098 -0.019531 -0.11719 c0 -0.10416 0.032559 -0.24738 0.097656 -0.42967 c0.026035 -0.10416 0.078125 -0.26041 0.15625 -0.46875 c0.05209 -0.18229 0.11068 -0.3841 0.17578 -0.60545 l8.6523 0 z M141.5041875 27.793 c-0.42969 0.50781 -0.72266 1.0873 -0.87891 1.7383 c-0.078125 0.29947 -0.11719 0.59895 -0.11719 0.89842 c0 0.36459 0.065098 0.72266 0.19531 1.0742 l-0.83984 -2.2656 c-0.11719 -0.3125 -0.17578 -0.625 -0.17578 -0.9375 c0 -0.39063 0.091152 -0.78125 0.27344 -1.1719 c0.48178 0.35156 0.99609 0.57291 1.543 0.66406 z M140.4881875 40.93748 l0.058594 0.21484 c-0.67709 0.58594 -1.4648 0.87891 -2.3633 0.87891 c-0.65104 0 -1.263 -0.16275 -1.8359 -0.48828 c0.20834 -0.11719 0.42969 -0.28646 0.66406 -0.50781 c0.76822 -0.11719 1.4583 -0.41016 2.0703 -0.87891 l0.13672 0.11719 c0.39063 0.27344 0.80729 0.47525 1.25 0.60547 z M144.2771875 40.35154 c0.32553 0.52084 0.72918 0.91797 1.211 1.1914 c-0.57291 0.32553 -1.1849 0.48828 -1.8359 0.48828 c-0.75521 0 -1.4518 -0.22135 -2.0898 -0.66406 l-0.097656 -0.29297 l0.17578 0 l0.17578 0.019531 c0.80729 0 1.5625 -0.20182 2.2656 -0.60547 c0.065098 -0.039063 0.1302 -0.084629 0.19529 -0.13672 z M127.1091875 40.35154 c0.33854 0.50781 0.74867 0.90494 1.2304 1.1914 c-0.5599 0.32553 -1.1654 0.48828 -1.8164 0.48828 c-0.89844 0 -1.6927 -0.29947 -2.3828 -0.89844 l0.039063 -0.078125 l0.25391 0.019531 l0.25391 0.019531 c0.82031 0 1.5755 -0.20182 2.2656 -0.60547 c0.05209 -0.039063 0.10418 -0.084629 0.15627 -0.13672 z M121.9335875 40.15623 c0.40365 0.3125 0.85285 0.54689 1.3476 0.70314 l-0.17578 0.52734 c-0.61197 0.42969 -1.2956 0.64453 -2.0508 0.64453 c-0.65104 0 -1.263 -0.16275 -1.8359 -0.48828 c0.20834 -0.11719 0.42318 -0.28646 0.64453 -0.50781 c0.70313 -0.091152 1.3412 -0.33855 1.9141 -0.74221 c0.065098 -0.039063 0.11719 -0.084629 0.15625 -0.13672 z M139.8831875 31.875 c0.091152 0.26041 0.22139 0.62498 0.39066 1.0937 l0.19531 0.54688 l0.19531 0.50781 c0.58594 1.6276 1.0287 2.8451 1.3281 3.6523 c0.33854 0.91146 0.89191 1.5886 1.6601 2.0313 c-0.57291 0.32553 -1.1849 0.48828 -1.8359 0.48828 c-0.75521 0 -1.4518 -0.22135 -2.0898 -0.66406 l-2.4219 -7.2461 l-6.5234 -19.688 c0.6901 -0.58594 1.4779 -0.87891 2.3633 -0.87891 c0.66406 0 1.276 0.16275 1.8359 0.48828 c-0.5599 0.32553 -0.94402 0.76824 -1.1524 1.3281 c-0.10416 0.27344 -0.15625 0.5599 -0.15625 0.85938 c0 0.3125 0.058594 0.63803 0.17578 0.97656 c0.026035 0.05209 0.11719 0.306 0.27344 0.76172 c0.19531 0.52084 0.42318 1.1328 0.68359 1.8359 c0.70313 1.9271 1.3867 3.8086 2.0508 5.6445 c0.48178 1.3151 1.4193 2.0963 2.8125 2.3438 c-0.59896 0.70313 -0.89844 1.4583 -0.89844 2.2656 c0 0.42969 0.084629 0.8724 0.25391 1.3281 c0.2474 0.66406 0.53387 1.4388 0.85939 2.3242 z M136.6601875 33.1445 l1.9922 5.957 l0.058594 0.21484 c-0.67709 0.58594 -1.4648 0.87891 -2.3633 0.87891 c-0.65104 0 -1.263 -0.16275 -1.8359 -0.48828 c0.75521 -0.44271 1.2891 -1.0677 1.6016 -1.875 c0.039063 -0.11719 0.058594 -0.2474 0.058594 -0.39063 c0 -0.22135 -0.045566 -0.47525 -0.13672 -0.76172 c-0.05209 -0.16928 -0.15625 -0.4948 -0.3125 -0.97658 l-0.097656 -0.25391 c-0.026035 -0.065098 -0.05207 -0.13672 -0.078105 -0.21484 c-0.039063 -0.14322 -0.065098 -0.22135 -0.078125 -0.23438 l-9.9414 0 c0 0.013027 -0.026035 0.091152 -0.078125 0.23438 l-0.039063 0.097656 l-0.019531 0.11719 l-0.097656 0.25391 c-0.14322 0.49479 -0.24738 0.82031 -0.31248 0.97656 c-0.091152 0.27344 -0.13672 0.51432 -0.13672 0.72266 c0 0.15625 0.026035 0.29947 0.078125 0.42969 c0.29947 0.80729 0.82682 1.4323 1.582 1.875 c-0.5599 0.32553 -1.1654 0.48828 -1.8164 0.48828 c-0.89844 0 -1.6927 -0.29947 -2.3828 -0.89844 l2.0313 -6.1523 l12.324 0 z M130.6051875 20.215 l-3.5547 10.176 l6.9727 0 z M136.3671875 32.2461 l-11.738 0 l5.8789 -17.637 z M123.6716875 32.2461 l-2.4023 7.3047 c-0.61197 0.42969 -1.2956 0.64453 -2.0508 0.64453 c-0.65104 0 -1.263 -0.16275 -1.8359 -0.48828 c0.76822 -0.44271 1.3151 -1.1198 1.6406 -2.0313 c0.27344 -0.72916 0.71615 -1.9466 1.3281 -3.6523 l0.19531 -0.52734 l0.19531 -0.52734 c0.14322 -0.40365 0.27344 -0.76824 0.39063 -1.0938 c0.29947 -0.84635 0.57941 -1.6211 0.83982 -2.3242 c0.16928 -0.45572 0.25391 -0.89844 0.25391 -1.3281 c0 -0.80729 -0.29297 -1.5625 -0.87891 -2.2656 c1.3802 -0.2474 2.3111 -1.0287 2.793 -2.3438 c0.6901 -1.875 1.3737 -3.7564 2.0508 -5.6445 c0.59896 -1.6276 0.91797 -2.4936 0.95703 -2.5977 c0.11719 -0.33854 0.17578 -0.66406 0.17578 -0.97656 c0 -0.29947 -0.05209 -0.58594 -0.15625 -0.85938 c-0.20834 -0.5599 -0.59246 -1.0026 -1.1524 -1.3281 c0.57291 -0.32553 1.1849 -0.48828 1.8359 -0.48828 c0.89844 0 1.6927 0.29297 2.3828 0.87891 z M146.1718375 18.73 c-1.4063 0 -2.4674 0.60547 -3.1836 1.8164 c-0.32553 -0.57291 -0.48828 -1.1784 -0.48828 -1.8164 l0 -0.13672 l0.019531 -0.13672 c0.52084 -0.44271 1.1198 -0.66406 1.7969 -0.66406 l2.7734 0 l0 0.9375 l-0.91797 0 z M150.7224375 40.23438 c0.40365 0.3125 0.86588 0.54689 1.3867 0.70314 l0 0.35156 c-0.67709 0.53385 -1.4388 0.80078 -2.2852 0.80078 c-0.66406 0 -1.276 -0.16275 -1.8359 -0.48828 c0.23438 -0.13021 0.45572 -0.29949 0.66406 -0.50783 c0.75521 -0.11719 1.4453 -0.40365 2.0703 -0.85938 z M160.9374375 14.453 c0.35156 -0.54688 0.57943 -1.1393 0.68359 -1.7773 c0.19531 -0.22135 0.35807 -0.4427 0.48828 -0.66404 c0.33854 0.57291 0.50781 1.1849 0.50781 1.8359 c-0.013027 0.71615 -0.21484 1.3802 -0.60547 1.9922 l-0.48828 0 c-0.11719 -0.50781 -0.3125 -0.97006 -0.58594 -1.3867 z M155.8784375 40.42971 c0.32553 0.49479 0.73566 0.88541 1.2304 1.1719 c-0.5599 0.32553 -1.1654 0.48828 -1.8164 0.48828 c-0.85938 0 -1.6211 -0.26693 -2.2852 -0.80078 l0 -0.17578 l0.21484 0.019531 l0.23438 0.019531 c0.80729 0 1.5625 -0.20182 2.2656 -0.60547 c0.05209 -0.026035 0.10418 -0.065098 0.15627 -0.11719 z M162.0114375 16.738 c0.39063 0.59896 0.58594 1.237 0.58594 1.9141 l0 0.058594 c0 0.65104 -0.16275 1.263 -0.48828 1.8359 c-0.28646 -0.49479 -0.67709 -0.90494 -1.1719 -1.2305 c0.05209 -0.05209 0.091152 -0.10418 0.11719 -0.15627 c0.40365 -0.70313 0.60547 -1.4648 0.60547 -2.2852 l0 -0.13672 l0.35156 0 z M157.1094375 17.793 c0.83334 0 1.5234 0.319 2.0703 0.95703 l-0.11719 -0.019531 l-3.7695 0 l0 6.0742 l0.019531 0.11719 c-0.63803 -0.54688 -0.95703 -1.237 -0.95703 -2.0703 l0 -5.0586 l2.7539 0 z M155.8784375 26.68 c0.32553 0.49479 0.73566 0.88543 1.2304 1.1719 c-1.2109 0.70313 -1.8164 1.7578 -1.8164 3.1641 l0 7.5391 l0.019531 0.11719 c-0.63803 -0.54688 -0.95703 -1.237 -0.95703 -2.0703 l0 -7.4219 c0 -1.0677 0.45572 -1.862 1.3672 -2.3828 c0.05209 -0.026035 0.10418 -0.065098 0.15627 -0.11719 z M151.1714375 14.902000000000001 l8.9844 0.000019073 c0.40365 0.61197 0.60547 1.2695 0.60547 1.9727 c0 0.65104 -0.16275 1.263 -0.48828 1.8359 c-0.70313 -1.2109 -1.7578 -1.8164 -3.1641 -1.8164 l-3.6523 0 l0 5.957 c0 1.4063 0.60547 2.4609 1.8164 3.1641 c-1.2109 0.70313 -1.8164 1.7578 -1.8164 3.1641 l0 7.4219 c0 1.4063 0.60547 2.4609 1.8164 3.1641 c-0.5599 0.32553 -1.1654 0.48828 -1.8164 0.48828 c-0.85938 0 -1.6211 -0.26693 -2.2852 -0.80078 l0 -24.551 z M141.1522675 18.711 c-0.32553 -0.57291 -0.48828 -1.1784 -0.48828 -1.8164 c0 -0.71615 0.20182 -1.3802 0.60547 -1.9922 l9.0039 0 l0 24.551 c-0.67709 0.53385 -1.4453 0.80078 -2.3047 0.80078 c-0.65104 0 -1.2565 -0.16275 -1.8164 -0.48828 c1.2109 -0.70313 1.8229 -1.7578 1.8359 -3.1641 l0 -7.4414 c-0.013027 -1.3932 -0.625 -2.4414 -1.8359 -3.1445 c1.2109 -0.70313 1.8229 -1.7513 1.8359 -3.1445 l0 -5.9766 l-3.6719 0 c-1.3932 0 -2.4479 0.60547 -3.1641 1.8164 z M157.1094375 12.012 c1.4063 0 2.4609 -0.61197 3.1641 -1.8359 c0.32553 0.57291 0.48828 1.1849 0.48828 1.8359 c0 0.71615 -0.20182 1.3802 -0.60547 1.9922 l-18.887 0 c-0.40365 -0.61197 -0.60547 -1.276 -0.60547 -1.9922 c0 -0.65104 0.16275 -1.263 0.48828 -1.8359 c0.71615 1.224 1.7708 1.8359 3.1641 1.8359 l12.793 0 z M189.5118125 14.043 c-1.224 0.70313 -1.8359 1.7578 -1.8359 3.1641 l0.019531 7.4219 l0 0.23438 c-0.63803 -0.5599 -0.95703 -1.25 -0.95703 -2.0703 l0 -7.4219 c0 -0.67709 0.22787 -1.2761 0.68359 -1.7969 l0.13672 -0.019531 l0.11719 0 c0.66406 0 1.276 0.16275 1.8359 0.48828 z M171.6016125 29.102 c0 -1.0547 0.4557 -1.8424 1.3672 -2.3633 c0.05209 -0.026035 0.10418 -0.065098 0.15627 -0.11719 c0.32553 0.49479 0.73568 0.88541 1.2305 1.1719 c-1.2109 0.6901 -1.8164 1.7383 -1.8164 3.1445 l0 1.0547 c0 0.45572 0.039063 0.90494 0.11719 1.3477 c-0.70313 -0.75521 -1.0547 -1.8164 -1.0547 -3.1836 l0 -1.0547 z M188.2808125 26.621000000000002 c0.32553 0.49479 0.73568 0.88539 1.2305 1.1719 c-1.224 0.70313 -1.8359 1.7578 -1.8359 3.1641 l0 1.2891 c0 2.8906 -0.99609 5.2539 -2.9883 7.0898 c-1.9401 1.7969 -4.375 2.6953 -7.3047 2.6953 c-2.1875 0 -4.1342 -0.52734 -5.8398 -1.582 c1.276 0.42969 2.6107 0.64453 4.0039 0.64453 c3.2422 0 5.918 -1.0156 8.0273 -3.0469 c2.1094 -2.0182 3.1641 -4.5834 3.1641 -7.6953 l0 -1.2305 c0 -1.0547 0.46225 -1.849 1.3867 -2.3828 c0.05209 -0.026035 0.10418 -0.065098 0.15627 -0.11719 z M172.2656125 13.574000000000002 l0.13672 -0.019512 l0.13672 0 c0.66406 0 1.276 0.16275 1.8359 0.48828 c-1.224 0.70313 -1.8359 1.7578 -1.8359 3.1641 l0 7.5586 l0.019531 0.097656 c-0.63803 -0.54688 -0.95703 -1.2305 -0.95703 -2.0508 l0 -7.4414 c0 -0.67709 0.22135 -1.2761 0.66406 -1.7969 z M185.8398125 22.793 c0 1.3932 0.61197 2.4479 1.8359 3.1641 c-1.224 0.70313 -1.8359 1.7578 -1.8359 3.1641 l0 1.2305 c0 2.9166 -0.99609 5.2994 -2.9883 7.1484 c-1.9401 1.7969 -4.375 2.6953 -7.3047 2.6953 s-5.3711 -0.89844 -7.3242 -2.6953 c-1.9922 -1.849 -2.9883 -4.2318 -2.9883 -7.1484 l0 -1.2305 c0 -1.4063 -0.61197 -2.4609 -1.8359 -3.1641 c1.224 -0.71615 1.8359 -1.7708 1.8359 -3.1641 l0 -7.4219 c0 -1.4063 -0.61197 -2.4609 -1.8359 -3.1641 c0.5599 -0.32553 1.1719 -0.48828 1.8359 -0.48828 c0.85938 0 1.6211 0.26693 2.2852 0.80078 l0 17.637 c0 2.1484 0.64453 3.9779 1.9336 5.4883 c1.4844 1.7057 3.5156 2.5586 6.0938 2.5586 s4.6029 -0.85287 6.0742 -2.5586 c1.2891 -1.5104 1.9336 -3.3398 1.9336 -5.4883 l0 -17.637 c0.67709 -0.53385 1.4388 -0.80078 2.2852 -0.80078 c0.66406 0 1.276 0.16275 1.8359 0.48828 c-1.224 0.70313 -1.8359 1.7578 -1.8359 3.1641 l0 7.4219 z M168.4180125 12.52 c0.66406 -0.53385 1.4258 -0.8008 2.2852 -0.8008 c0.66406 0 1.276 0.16275 1.8359 0.48828 c-1.224 0.70313 -1.8359 1.7578 -1.8359 3.1641 l0 7.4414 c0 1.3932 0.60547 2.4414 1.8164 3.1445 c-1.2109 0.6901 -1.8164 1.7383 -1.8164 3.1445 l0 1.0547 c0 1.6016 0.43619 2.8646 1.3086 3.7891 c0.85938 0.91146 2.0377 1.3672 3.5352 1.3672 c1.4844 0 2.6563 -0.45572 3.5156 -1.3672 c0.88541 -0.92447 1.3281 -2.1875 1.3281 -3.7891 l0 -1.0547 c-0.013027 -1.4063 -0.625 -2.4545 -1.8359 -3.1445 c1.2109 -0.70313 1.8164 -1.7513 1.8164 -3.1445 l0 -7.4805 c0 -1.3932 -0.60547 -2.435 -1.8164 -3.125 c0.5599 -0.32553 1.1654 -0.48828 1.8164 -0.48828 c0.85938 0 1.6276 0.26693 2.3047 0.80078 l0 17.637 c0 1.9531 -0.57291 3.5873 -1.7188 4.9023 c-1.3021 1.4974 -3.1055 2.2461 -5.4102 2.2461 c-2.3178 0 -4.1211 -0.74869 -5.4102 -2.2461 c-1.1458 -1.3151 -1.7188 -2.9492 -1.7188 -4.9023 l0 -17.637 z M213.08634375 20.566 c0 -1.0026 -0.13021 -1.9662 -0.39063 -2.8906 c0.88541 1.3932 1.3281 2.9688 1.3281 4.7266 c0 1.8229 -0.50131 3.3984 -1.5039 4.7266 c-0.88541 1.1719 -2.0508 2.0313 -3.4961 2.5781 l-0.70313 -1.3477 c1.5104 -0.72916 2.6822 -1.7708 3.5156 -3.125 c0.83334 -1.3672 1.25 -2.9232 1.25 -4.668 z M214.94134375 40.48824 c0.46875 0.46875 0.91799 0.83334 1.3477 1.0938 c-0.59896 0.32553 -1.2175 0.48828 -1.8555 0.48828 c-0.74219 0 -1.4388 -0.18229 -2.0898 -0.54688 l-0.19531 -0.42969 l0.21484 0.019531 l0.23438 0.019531 c0.79428 0 1.556 -0.20182 2.2852 -0.60547 l0.039063 -0.019531 z M201.42534375 30.664099999999998 l-1.9922 0 l0 7.8711 l0.019531 0.11719 c-0.63803 -0.54688 -0.95703 -1.237 -0.95703 -2.0703 l0 -6.8555 l2.4609 0 z M202.75434375 17.773 c1.0547 0 1.862 0.32553 2.4219 0.97656 c-0.20834 -0.026035 -0.40365 -0.039063 -0.58594 -0.039063 l-5.1563 0 l0 4.6484 l-0.9375 0 l0 -5.5859 l4.2578 0 z M194.86324375 40.2148 c0.41666 0.3125 0.87889 0.54688 1.3867 0.70313 l0 0.35156 c-0.67709 0.53385 -1.4388 0.80078 -2.2852 0.80078 c-0.65104 0 -1.263 -0.16275 -1.8359 -0.48828 c0.23438 -0.14322 0.46225 -0.3125 0.68359 -0.50781 c0.75521 -0.11719 1.4388 -0.40365 2.0508 -0.85938 z M210.07834375 40.46871 c0.26041 0.14322 0.57291 0.27342 0.9375 0.39061 l0.15625 0.33203 c-0.61197 0.58594 -1.3477 0.87891 -2.207 0.87891 c-0.65104 0 -1.25 -0.16275 -1.7969 -0.48828 c0.23438 -0.14322 0.41016 -0.3125 0.52734 -0.50781 c0.79428 -0.10416 1.4844 -0.40363 2.0703 -0.89842 c0.078125 0.11719 0.18229 0.21484 0.3125 0.29297 z M200.01934375 40.39057 c0.32553 0.50781 0.73564 0.90492 1.2304 1.1914 c-0.57291 0.32553 -1.1784 0.48828 -1.8164 0.48828 c-0.85938 0 -1.6211 -0.26693 -2.2852 -0.80078 l0 -0.17578 l0.21484 0.019531 l0.23438 0.019531 c0.79428 0 1.5495 -0.20182 2.2656 -0.60547 c0.05209 -0.026035 0.10418 -0.071602 0.15627 -0.1367 z M211.56234375 36.5625 c0.74219 1.4063 1.7057 2.4674 2.8906 3.1836 c-0.59896 0.32553 -1.2175 0.48828 -1.8555 0.48828 c-0.74219 0 -1.4388 -0.18229 -2.0898 -0.54688 l-6.4063 -12.734 c1.7708 -0.23438 3.19 -0.91146 4.2578 -2.0313 c1.0547 -1.1328 1.582 -2.5521 1.582 -4.2578 c0 -2.1484 -0.76172 -3.8346 -2.2852 -5.0586 c-1.3412 -1.0807 -2.9623 -1.6211 -4.8633 -1.6211 l-8.3789 0 l0 25.449 c-0.67709 0.53385 -1.4388 0.80078 -2.2852 0.80078 c-0.65104 0 -1.263 -0.16275 -1.8359 -0.48828 c1.224 -0.71615 1.8359 -1.7708 1.8359 -3.1641 l0 -7.4609 c-0.013027 -1.3802 -0.625 -2.4219 -1.8359 -3.125 c1.2109 -0.70313 1.8229 -1.7513 1.8359 -3.1445 l0 -7.2461 c-0.013027 -1.3802 -0.625 -2.4219 -1.8359 -3.125 c0.57291 -0.32553 1.1849 -0.48828 1.8359 -0.48828 l10.977 0 c2.7604 0 4.9869 0.83984 6.6797 2.5195 c1.6016 1.6016 2.4023 3.6197 2.4023 6.0547 c0 1.849 -0.51432 3.4439 -1.543 4.7852 c-0.89844 1.1719 -2.0898 2.0248 -3.5742 2.5586 z M202.83234375 27.051000000000002 l0.13672 -0.019531 l0.15625 0 l6.2109 12.324 c-0.61197 0.58594 -1.3477 0.87891 -2.207 0.87891 c-0.65104 0 -1.2565 -0.16275 -1.8164 -0.48828 c0.46875 -0.27344 0.70313 -0.65104 0.70313 -1.1328 l0 -0.15625 c-0.039063 -0.40365 -0.26693 -1.0352 -0.68359 -1.8945 l-3.8086 -7.7344 l-3.9258 0 l0 7.7539 c0 1.3932 0.60547 2.4479 1.8164 3.1641 c-0.57291 0.32553 -1.1784 0.48828 -1.8164 0.48828 c-0.85938 0 -1.6211 -0.26693 -2.2852 -0.80078 l0 -12.383 l7.5195 0 z M202.75434375 24.258 c1.1849 0 2.1484 -0.34508 2.8906 -1.0352 c0.71615 -0.6901 1.0742 -1.5755 1.0742 -2.6563 c0 -1.0938 -0.35807 -1.9791 -1.0742 -2.6563 c-0.74219 -0.6901 -1.7057 -1.0352 -2.8906 -1.0352 l-5.1563 0 l0 7.3828 l5.1563 0 z M203.55434375 26.113 c-0.27344 0.026035 -0.51432 0.039043 -0.72266 0.039043 l-7.5195 0 l0 -11.27 l7.4805 0 c0.61197 0 1.2435 0.084629 1.8945 0.25391 c0.75521 0.20834 1.4323 0.51434 2.0313 0.91799 c1.5495 1.0417 2.3242 2.5781 2.3242 4.6094 c0 1.6927 -0.56641 3.0209 -1.6992 3.9844 c-0.95053 0.82031 -2.1811 1.3021 -3.6914 1.4453 z M221.8359875 40.17578 c0.41666 0.3125 0.87889 0.54689 1.3867 0.70314 l0 0.35156 c-0.67709 0.53385 -1.4388 0.80078 -2.2852 0.80078 c-0.65104 0 -1.263 -0.16275 -1.8359 -0.48828 c0.23438 -0.13021 0.45572 -0.29949 0.66406 -0.50783 c0.75521 -0.11719 1.4453 -0.40365 2.0703 -0.85938 z M228.2426875 14.043 c-1.224 0.70313 -1.8359 1.7578 -1.8359 3.1641 l0 7.5391 l0.019531 0.11719 c-0.63803 -0.54688 -0.95703 -1.237 -0.95703 -2.0703 l0 -7.4219 c0 -0.67709 0.22135 -1.2761 0.66406 -1.7969 l0.13672 -0.019531 l0.13672 0 c0.65104 0 1.263 0.16275 1.8359 0.48828 z M226.9926875 40.37113 c0.32553 0.49479 0.73566 0.88541 1.2304 1.1719 c-0.5599 0.32553 -1.1654 0.48828 -1.8164 0.48828 c-0.84635 0 -1.6081 -0.26693 -2.2852 -0.80078 l0 -0.17578 l0.21484 0.019531 l0.23438 0.019531 c0.80729 0 1.5625 -0.20182 2.2656 -0.60547 c0.05209 -0.026035 0.10418 -0.065098 0.15627 -0.11719 z M226.9926875 26.621000000000002 c0.32553 0.49479 0.73566 0.88541 1.2304 1.1719 c-1.2109 0.70313 -1.8164 1.7578 -1.8164 3.1641 l0 7.6563 c-0.625 -0.54688 -0.9375 -1.237 -0.9375 -2.0703 l0 -7.4219 c0 -1.0547 0.45572 -1.849 1.3672 -2.3828 c0.05209 -0.026035 0.10418 -0.065098 0.15627 -0.11719 z M224.5702875 11.719000000000001 c0.65104 0 1.263 0.16275 1.8359 0.48828 c-1.224 0.70313 -1.8359 1.7578 -1.8359 3.1641 l0 7.4219 c0 1.4063 0.60547 2.4609 1.8164 3.1641 c-1.2109 0.70313 -1.8164 1.7578 -1.8164 3.1641 l0 7.4219 c0 1.3932 0.60547 2.4479 1.8164 3.1641 c-0.5599 0.32553 -1.1654 0.48828 -1.8164 0.48828 c-0.84635 0 -1.6081 -0.26693 -2.2852 -0.80078 l0 -26.875 c0.67709 -0.53385 1.4388 -0.80078 2.2852 -0.80078 z M219.1015875 11.719000000000001 c0.84635 0 1.608 0.26693 2.2852 0.80078 l0 26.855 c-0.67709 0.54688 -1.4388 0.82031 -2.2852 0.82031 c-0.65104 0 -1.263 -0.16275 -1.8359 -0.48828 c1.224 -0.71615 1.8359 -1.7708 1.8359 -3.1641 l0 -7.4219 c0 -1.4063 -0.61197 -2.4609 -1.8359 -3.1641 c1.224 -0.70313 1.8359 -1.7578 1.8359 -3.1641 l0 -7.4219 c0 -1.4063 -0.61197 -2.4609 -1.8359 -3.1641 c0.5599 -0.32553 1.1719 -0.48828 1.8359 -0.48828 z M233.789025 40 c0.40365 0.3125 0.8659 0.54689 1.3867 0.70314 l0 0.35156 c-0.67709 0.53385 -1.4388 0.80078 -2.2852 0.80078 c-0.66406 0 -1.276 -0.16275 -1.8359 -0.48828 c0.23438 -0.13021 0.45572 -0.29949 0.66406 -0.50783 c0.76822 -0.11719 1.4583 -0.40365 2.0703 -0.85938 z M249.687125 14.453 c0.33854 -0.54688 0.5599 -1.1393 0.66406 -1.7773 c0.19531 -0.20834 0.35807 -0.42969 0.48828 -0.66406 c0.33854 0.57291 0.50781 1.1849 0.50781 1.8359 c0 0.70313 -0.20182 1.3672 -0.60547 1.9922 l-0.46875 0 c-0.13021 -0.50781 -0.32553 -0.97006 -0.58594 -1.3867 z M245.840125 17.793 c0.83334 0 1.5299 0.319 2.0898 0.95703 l-0.13672 -0.019531 l-9.4336 0 l0 3.9453 l-0.9375 0 l0 -4.8828 l8.418 0 z M238.945125 40.17582 c0.32553 0.50781 0.73564 0.90492 1.2304 1.1914 c-0.57291 0.32553 -1.1784 0.48828 -1.8164 0.48828 c-0.84635 0 -1.6081 -0.26693 -2.2852 -0.80078 l0 -0.17578 l0.21484 0.019531 l0.23438 0.019531 c0.79428 0 1.5495 -0.20182 2.2656 -0.60547 c0.05209 -0.026035 0.10418 -0.071602 0.15627 -0.1367 z M248.418125 24.258 c0.19531 -0.22135 0.36461 -0.4492 0.50783 -0.68357 c0.32553 0.57291 0.48828 1.1849 0.48828 1.8359 c0 0.71615 -0.20182 1.3802 -0.60547 1.9922 l-0.46875 0 c-0.13021 -0.50781 -0.32553 -0.97006 -0.58594 -1.3867 c0.33854 -0.54688 0.55988 -1.1328 0.66404 -1.7578 z M250.742125 16.738 c0.40365 0.61197 0.60547 1.276 0.60547 1.9922 c0 0.65104 -0.16928 1.2565 -0.50781 1.8164 c-0.28646 -0.49479 -0.67709 -0.90494 -1.1719 -1.2305 c0.05209 -0.05209 0.091152 -0.097656 0.11719 -0.13672 c0.40365 -0.71615 0.60547 -1.4779 0.60547 -2.2852 l0 -0.15625 l0.35156 0 z M243.906125 29.355 c0.83334 0 1.5299 0.319 2.0898 0.95703 l-0.11719 -0.019531 l-7.5195 0 l0 8.0273 l0.019531 0.11719 c-0.63803 -0.5599 -0.95703 -1.25 -0.95703 -2.0703 l0 -7.0117 l6.4844 0 z M248.808125 28.301000000000002 c0.40365 0.59896 0.60547 1.263 0.60547 1.9922 c0 0.65104 -0.16928 1.263 -0.50781 1.8359 c-0.27344 -0.50781 -0.66406 -0.92447 -1.1719 -1.25 l0.11719 -0.13672 c0.41666 -0.70313 0.625 -1.4648 0.625 -2.2852 l-0.019531 -0.15625 l0.35156 0 z M234.238325 26.465 l12.734 0 c0.40365 0.59896 0.60547 1.263 0.60547 1.9922 c0 0.65104 -0.16928 1.2565 -0.50781 1.8164 c-0.70313 -1.2109 -1.7578 -1.8164 -3.1641 -1.8164 l-7.3828 0 l0 7.9102 c0 1.3932 0.60547 2.4479 1.8164 3.1641 c-0.57291 0.32553 -1.1784 0.48828 -1.8164 0.48828 c-0.85938 0 -1.6211 -0.26693 -2.2852 -0.80078 l0 -12.754 z M234.238325 14.902000000000001 l14.668 0.000019073 c0.39063 0.61197 0.58594 1.276 0.58594 1.9922 c0 0.65104 -0.16275 1.2565 -0.48828 1.8164 c-0.70313 -1.2109 -1.7578 -1.8164 -3.1641 -1.8164 l-9.3164 0 l0 6.6797 l7.3828 0 c1.4193 0 2.4805 -0.61197 3.1836 -1.8359 c0.32553 0.57291 0.48828 1.1849 0.48828 1.8359 c0 0.71615 -0.20182 1.3802 -0.60547 1.9922 l-12.734 0 l0 -10.664 z M245.840125 12.012 c1.4063 0 2.4609 -0.61195 3.1641 -1.8359 c0.32553 0.57291 0.4948 1.1849 0.50783 1.8359 c-0.013027 0.70313 -0.21484 1.3672 -0.60547 1.9922 l-15.566 0 l0 25.215 c-0.67709 0.53385 -1.4388 0.80078 -2.2852 0.80078 c-0.66406 0 -1.276 -0.16275 -1.8359 -0.48828 c1.224 -0.71615 1.8359 -1.7708 1.8359 -3.1641 l0 -7.207 c-0.013027 -1.3932 -0.625 -2.4414 -1.8359 -3.1445 c1.2109 -0.70313 1.8229 -1.7513 1.8359 -3.1445 l0 -7.207 c-0.013027 -1.4063 -0.625 -2.4609 -1.8359 -3.1641 c0.5599 -0.32553 1.1719 -0.48828 1.8359 -0.48828 l14.785 0 z M263.08628125 14.043 c-0.3125 0.15625 -0.53385 0.41014 -0.66406 0.7617 c-0.065098 0.20834 -0.097656 0.45574 -0.097656 0.74221 l0 0.25391 c0.039063 0.44271 0.13672 0.85938 0.29297 1.25 l-1.0156 -2.207 c-0.26041 -0.58594 -0.39063 -1.0156 -0.39063 -1.2891 l0.058594 0 c0.65104 0 1.2565 0.16275 1.8164 0.48828 z M264.35528125 40.17576 c0.41666 0.3125 0.87891 0.54689 1.3867 0.70314 l0 0.35156 c-0.66406 0.53385 -1.4258 0.80078 -2.2852 0.80078 c-0.65104 0 -1.2565 -0.16275 -1.8164 -0.48828 c0.23438 -0.13021 0.45572 -0.29949 0.66406 -0.50783 c0.76822 -0.11719 1.4518 -0.40365 2.0508 -0.85938 z M276.60128125 13.555 c0.66406 0 1.2761 0.16271 1.836 0.48824 c-0.9375 0.35156 -1.7383 1.0287 -2.4023 2.0313 l-4.6289 9.3359 c-0.42969 0.84635 -0.64453 1.5299 -0.64453 2.0508 l0 0.039063 c0 0.52084 0.22135 0.98959 0.66406 1.4063 c-0.70313 0.10416 -1.3021 0.41666 -1.7969 0.9375 c-0.48178 0.50781 -0.72266 1.0807 -0.72266 1.7188 l0 6.9141 l0.019531 0.11719 c-0.63803 -0.5599 -0.95703 -1.2435 -0.95703 -2.0508 l0 -6.8359 c0 -0.40365 0.16928 -0.78125 0.50781 -1.1328 c0.35156 -0.33854 0.76172 -0.54035 1.2305 -0.60545 c0.3776 -0.05209 0.625 -0.26043 0.74219 -0.62502 c0.039063 -0.10416 0.058594 -0.20832 0.058594 -0.31248 c0 -0.22135 -0.097656 -0.42316 -0.29297 -0.60545 c-0.26041 -0.2474 -0.39063 -0.50781 -0.39063 -0.78125 l0 -0.039063 c0 -0.3776 0.18229 -0.92447 0.54688 -1.6406 l4.6094 -9.2773 c0.29947 -0.45572 0.59895 -0.80729 0.89842 -1.0547 c0.27344 -0.05209 0.51432 -0.078125 0.72266 -0.078125 z M269.53128125 40.37105 c0.32553 0.49479 0.73568 0.88541 1.2305 1.1719 c-0.57291 0.32553 -1.1784 0.48828 -1.8164 0.48828 c-0.85938 0 -1.6276 -0.26693 -2.3047 -0.80078 l0 -0.17578 l0.23438 0.019531 l0.21484 0.019531 c0.80729 0 1.569 -0.20182 2.2852 -0.60547 z M252.12892125 12.207 c0.5599 -0.32553 1.1719 -0.48828 1.8359 -0.48828 c0.72916 0 1.4258 0.18229 2.0898 0.54688 l7.8516 16.035 l0 11.094 c-0.66406 0.53385 -1.4258 0.80078 -2.2852 0.80078 c-0.65104 0 -1.2565 -0.16275 -1.8164 -0.48828 c1.224 -0.71615 1.8359 -1.7708 1.8359 -3.1641 l0 -6.8164 c0 -0.63803 -0.24088 -1.2109 -0.72266 -1.7188 c-0.49479 -0.52084 -1.1003 -0.83334 -1.8164 -0.9375 c0.45572 -0.42969 0.6901 -0.91146 0.70313 -1.4453 c0 -0.53385 -0.22135 -1.2174 -0.66406 -2.0508 l-4.6094 -9.3359 c-0.66406 -1.0026 -1.4648 -1.6797 -2.4023 -2.0313 z M267.48028125 12.207 c0.5599 -0.32553 1.1653 -0.48828 1.8164 -0.48828 c0.83334 0 1.569 0.306 2.207 0.91797 l-7.1289 14.551 l-7.1484 -14.57 c0.63803 -0.59896 1.3737 -0.89844 2.207 -0.89844 c0.65104 0 1.2565 0.16275 1.8164 0.48828 c-0.625 0.29947 -0.9375 0.7552 -0.9375 1.3672 c0 0.40365 0.15625 0.95053 0.46875 1.6406 l3.6133 8.0273 l3.5547 -8.0273 c0.3125 -0.6901 0.46875 -1.237 0.46875 -1.6406 c0 -0.61197 -0.3125 -1.0677 -0.9375 -1.3672 z M272.69528125 12.265999999999998 c0.66406 -0.36459 1.3541 -0.54688 2.0703 -0.54688 c0.66406 0 1.276 0.16275 1.8359 0.48828 c-0.9375 0.35156 -1.7383 1.0287 -2.4023 2.0313 l-4.6289 9.3359 c-0.42969 0.83334 -0.65104 1.5169 -0.66406 2.0508 c0 0.53385 0.22787 1.0156 0.68359 1.4453 c-0.70313 0.10416 -1.3021 0.41666 -1.7969 0.9375 c-0.48178 0.50781 -0.72266 1.0807 -0.72266 1.7188 l0 6.8164 c0 1.3932 0.6185 2.4479 1.8555 3.1641 c-0.57291 0.32553 -1.1849 0.48828 -1.8359 0.48828 c-0.84635 0 -1.6081 -0.26693 -2.2852 -0.80078 l0 -11.094 z"/></g>
			</g>
		</svg>
	